<?xml version="1.0" encoding="UTF-8"?>
<svg id="Camada_1" data-name="Camada 1" xmlns="http://www.w3.org/2000/svg" viewBox="0 0 512 512">
  <defs>
    <style>
      .cls-1, .cls-2 {
        fill: none;
      }

      .cls-3 {
        fill: #ccc;
        stroke: #000;
        stroke-miterlimit: 10;
        stroke-width: 2px;
      }

      .cls-2 {
        stroke: #00bf05;
        stroke-linecap: round;
        stroke-linejoin: round;
        stroke-width: 10px;
      }

      .cls-4 {
        fill: #e52421;
        isolation: isolate;
        opacity: .6;
        stroke: #e52421;
        stroke-width: 4px;
      }
    </style>
  </defs>
  <path d="M256,170h0c19.88,0,36,16.12,36,36v68c0,19.88-16.12,36-36,36h0c-19.88,0-36-16.12-36-36v-68c0-19.88,16.12-36,36-36Z"/>
  <path class="cls-3" d="M230,130h52c16.57,0,30,13.43,30,30h0c0,16.57-13.43,30-30,30h-52c-16.57,0-30-13.43-30-30h0c0-16.57,13.43-30,30-30Z"/>
  <rect x="246" y="310" width="20" height="40"/>
  <path d="M226,350h60c3.31,0,6,2.69,6,6h0c0,3.31-2.69,6-6,6h-60c-3.31,0-6-2.69-6-6h0c0-3.31,2.69-6,6-6Z"/>
  <path class="cls-2" d="M140,260c20-30,40,30,60,0s40-30,60,0,40,30,60,0,40-30,60,0"/>
  <path class="cls-4" d="M120,240l10,10"/>
  <path class="cls-4" d="M390,280l12-12"/>
  <path class="cls-4" d="M180,300l-10,10"/>
  <rect class="cls-1" width="512" height="512"/>
</svg>